HIERARCHY
ROOT joint_Root
{
	OFFSET 0.0 0.0 0.0
	CHANNELS 6 Xposition Yposition Zposition Zrotation Xrotation Yrotation 
	JOINT Hips
	{
		OFFSET -0.726466 93.3139 -2.00062
		CHANNELS 6 Xposition Yposition Zposition Zrotation Xrotation Yrotation 
		JOINT Spine
		{
			OFFSET 15.7357 0.0 0.0
			CHANNELS 6 Xposition Yposition Zposition Zrotation Xrotation Yrotation 
			JOINT Chest
			{
				OFFSET 8.98455 -0.406207 0.0
				CHANNELS 6 Xposition Yposition Zposition Zrotation Xrotation Yrotation 
				JOINT Neck
				{
					OFFSET 16.3773 0.0 0.0
					CHANNELS 6 Xposition Yposition Zposition Zrotation Xrotation Yrotation 
					JOINT Head
					{
						OFFSET 6.45672 0.0 0.0
						CHANNELS 6 Xposition Yposition Zposition Zrotation Xrotation Yrotation 
						End Site
						{
							OFFSET 0.0 0.0 0.0
						}
					}
				}
				JOINT Shoulder_L
				{
					OFFSET 12.9942 -0.242716 4.98039
					CHANNELS 6 Xposition Yposition Zposition Zrotation Xrotation Yrotation 
					JOINT UpperArm_L
					{
						OFFSET 5.34809 0.0 0.0
						CHANNELS 6 Xposition Yposition Zposition Zrotation Xrotation Yrotation 
						JOINT LowerArm_L
						{
							OFFSET 24.3286 1.87007e-05 0.0
							CHANNELS 6 Xposition Yposition Zposition Zrotation Xrotation Yrotation 
							JOINT Hand_L
							{
								OFFSET 22.2916 0.0 0.0
								CHANNELS 6 Xposition Yposition Zposition Zrotation Xrotation Yrotation 
								End Site
								{
									OFFSET 0.0 0.0 0.0
								}
							}
						}
					}
				}
				JOINT Shoulder_R
				{
					OFFSET 12.9945 -0.242716 -4.98039
					CHANNELS 6 Xposition Yposition Zposition Zrotation Xrotation Yrotation 
					JOINT UpperArm_R
					{
						OFFSET -5.34813 0.0 0.0
						CHANNELS 6 Xposition Yposition Zposition Zrotation Xrotation Yrotation 
						JOINT LowerArm_R
						{
							OFFSET -24.3289 0.000322201 0.0
							CHANNELS 6 Xposition Yposition Zposition Zrotation Xrotation Yrotation 
							JOINT Hand_R
							{
								OFFSET -22.2915 -0.000108084 0.0
								CHANNELS 6 Xposition Yposition Zposition Zrotation Xrotation Yrotation 
								End Site
								{
									OFFSET 0.0 0.0 0.0
								}
							}
						}
					}
				}
			}
		}
		JOINT UpperLeg_L
		{
			OFFSET -2.19248 -6.46944 0.0
			CHANNELS 6 Xposition Yposition Zposition Zrotation Xrotation Yrotation 
			JOINT LowerLeg_L
			{
				OFFSET 39.0811 0.0 -1.23785e-05
				CHANNELS 6 Xposition Yposition Zposition Zrotation Xrotation Yrotation 
				JOINT Foot_L
				{
					OFFSET 40.9854 0.0 -1.26872e-05
					CHANNELS 6 Xposition Yposition Zposition Zrotation Xrotation Yrotation 
					JOINT Toes_L
					{
						OFFSET 11.7543 0.0 0.0
						CHANNELS 6 Xposition Yposition Zposition Zrotation Xrotation Yrotation 
						End Site
						{
							OFFSET 0.0 0.0 0.0
						}
					}
				}
			}
		}
		JOINT UpperLeg_R
		{
			OFFSET -2.19251 6.46944 0.0
			CHANNELS 6 Xposition Yposition Zposition Zrotation Xrotation Yrotation 
			JOINT LowerLeg_R
			{
				OFFSET -39.0811 -0.00228153 -0.0401928
				CHANNELS 6 Xposition Yposition Zposition Zrotation Xrotation Yrotation 
				JOINT Foot_R
				{
					OFFSET -40.9854 0.0 0.0
					CHANNELS 6 Xposition Yposition Zposition Zrotation Xrotation Yrotation 
					JOINT Toes_R
					{
						OFFSET -11.7543 0.0 0.0
						CHANNELS 6 Xposition Yposition Zposition Zrotation Xrotation Yrotation 
						End Site
						{
							OFFSET 0.0 0.0 0.0
						}
					}
				}
			}
		}
	}
}
MOTION
Frames:	5
Frame Time:	0.0333333
0.000000 0.000000 0.000000 0.000000 0.000000 -0.000000 -1.403660 92.187900 -1.456230 87.121900 -1.956680 0.832054 15.735700 0.000005 -0.000001 82.452200 85.675800 -81.872400 8.984550 -0.406207 -0.000000 0.813881 -1.170740 1.167020 16.377300 -0.000001 -0.000001 1.498130 -1.899630 0.432707 6.456720 -0.000001 -0.000000 -3.088900 -0.625065 5.186150 12.994200 -0.242716 4.980390 -89.632400 -1.096210 -71.461800 5.348090 -0.000007 -0.000001 -66.308500 40.670100 -15.406800 24.328600 0.000019 0.000005 4.049030 8.419870 -25.800000 22.291600 -0.000001 0.000005 4.211130 5.567590 -9.565080 12.994500 -0.242716 -4.980390 87.807000 5.710190 -68.949200 -5.348130 -0.000001 -0.000004 -61.502600 39.598600 -10.428300 -24.328900 0.000322 -0.000009 2.376560 3.230410 -36.383000 -22.291500 -0.000108 -0.000004 6.548900 5.561620 -9.266480 -2.192480 -6.469440 -0.000000 -167.843000 -16.751500 -3.995410 39.081100 -0.000007 -0.000012 -0.167561 0.469861 19.627400 40.985400 -0.000006 -0.000013 -7.150660 3.259030 -62.448900 11.754300 -0.000000 0.000003 -0.000092 -0.000962 -16.614500 -2.192510 6.469440 -0.000001 175.947000 21.322200 177.100000 -39.081100 -0.002282 -0.040193 -0.033085 0.112132 17.988800 -40.985400 0.000008 0.000006 -2.667570 4.773680 -62.337600 -11.754300 -0.000006 -0.000006 -0.004937 -0.060855 -19.049100
0.000000 0.000000 0.000000 0.000000 0.000000 -0.000000 -1.414040 92.184800 -1.474350 87.099500 -2.046290 0.889219 15.735700 0.000005 -0.000001 82.423800 85.634400 -81.799900 8.984550 -0.406207 -0.000000 0.896053 -1.188130 1.256090 16.377300 -0.000001 -0.000001 1.434030 -1.857380 0.554693 6.456720 -0.000001 -0.000000 -3.206740 -0.580647 5.424700 12.994200 -0.242716 4.980390 -89.630100 -1.103210 -71.464100 5.348090 -0.000007 -0.000001 -65.024500 40.882500 -16.276200 24.328600 0.000019 0.000005 4.450680 9.085150 -26.239600 22.291600 -0.000001 0.000005 4.232820 5.577080 -10.055800 12.994500 -0.242716 -4.980390 87.880700 5.518470 -68.953200 -5.348130 -0.000001 -0.000004 -60.591400 41.523700 -10.108400 -24.328900 0.000322 -0.000009 2.539440 3.154180 -38.882000 -22.291500 -0.000108 -0.000004 6.922480 5.568200 -9.595770 -2.192480 -6.469440 -0.000000 -167.801000 -16.822800 -3.958460 39.081100 -0.000007 -0.000012 -0.167077 0.466989 19.686200 40.985400 -0.000006 -0.000013 -7.154130 3.223980 -62.466200 11.754300 -0.000000 0.000003 -0.000102 -0.001046 -16.617700 -2.192510 6.469440 -0.000001 175.967000 21.226100 177.110000 -39.081100 -0.002282 -0.040193 -0.033833 0.114105 18.037600 -40.985400 0.000008 0.000006 -2.596510 4.785540 -62.354000 -11.754300 -0.000006 -0.000006 -0.004903 -0.060526 -19.035700
0.000000 0.000000 0.000000 0.000000 0.000000 -0.000000 -1.439450 92.183900 -1.493770 87.088000 -2.025660 0.970331 15.735700 0.000005 -0.000001 82.144800 85.583200 -81.466200 8.984550 -0.406207 -0.000000 0.992780 -1.246910 1.367020 16.377300 -0.000001 -0.000001 1.333650 -1.886200 0.643997 6.456720 -0.000001 -0.000000 -3.307650 -0.572305 5.684270 12.994200 -0.242716 4.980390 -89.656100 -1.024840 -71.449700 5.348090 -0.000007 -0.000001 -62.900800 40.934300 -17.579800 24.328600 0.000019 0.000005 5.107290 10.019700 -27.188000 22.291600 -0.000001 0.000005 4.157620 5.584560 -10.460200 12.994500 -0.242716 -4.980390 87.986100 5.233890 -68.919600 -5.348130 -0.000001 -0.000004 -59.657800 43.383600 -9.506540 -24.328900 0.000322 -0.000009 3.053970 3.381010 -42.141000 -22.291500 -0.000108 -0.000004 7.360530 5.575270 -9.960420 -2.192480 -6.469440 -0.000000 -167.746000 -16.726800 -3.871440 39.081100 -0.000007 -0.000012 -0.168365 0.471184 19.663200 40.985400 -0.000006 -0.000013 -7.184930 3.189480 -62.453700 11.754300 -0.000000 0.000003 -0.000106 -0.001079 -16.618900 -2.192510 6.469440 -0.000001 175.957000 21.263200 177.193000 -39.081100 -0.002282 -0.040193 -0.033840 0.114150 18.034200 -40.985400 0.000008 0.000006 -2.642980 4.814110 -62.341800 -11.754300 -0.000006 -0.000006 -0.004840 -0.059904 -19.010400
0.000000 0.000000 0.000000 0.000000 0.000000 -0.000000 -1.482070 92.177200 -1.529200 87.081400 -1.920340 1.004970 15.735700 0.000005 -0.000001 81.710500 85.536300 -80.971300 8.984550 -0.406207 -0.000000 1.077480 -1.329710 1.489680 16.377300 -0.000001 -0.000001 1.226100 -1.908060 0.715631 6.456720 -0.000001 -0.000000 -3.461560 -0.624597 5.930290 12.994200 -0.242716 4.980390 -89.663600 -0.996719 -71.348300 5.348090 -0.000007 -0.000001 -59.959000 40.611600 -19.445300 24.328600 0.000019 0.000005 5.923420 10.992800 -28.549200 22.291600 -0.000001 0.000005 4.695520 5.590790 -10.801300 12.994500 -0.242716 -4.980390 88.134700 4.840100 -68.894900 -5.348130 -0.000001 -0.000004 -58.606000 45.290300 -8.664500 -24.328900 0.000322 -0.000009 3.818800 3.683920 -46.099500 -22.291500 -0.000108 -0.000004 8.146650 5.585140 -10.489600 -2.192480 -6.469440 -0.000000 -167.716000 -16.665800 -3.933430 39.081100 -0.000007 -0.000012 -0.167288 0.466633 19.723000 40.985400 -0.000006 -0.000013 -7.192900 3.247510 -62.425900 11.754300 -0.000000 0.000003 -0.000096 -0.000996 -16.615800 -2.192510 6.469440 -0.000001 175.982000 21.333800 177.188000 -39.081100 -0.002282 -0.040193 -0.035604 0.119060 18.106200 -40.985400 0.000008 0.000006 -2.696120 4.765410 -62.369500 -11.754300 -0.000006 -0.000006 -0.005173 -0.063126 -19.141700
0.000000 0.000000 0.000000 0.000000 0.000000 -0.000000 -1.541830 92.184200 -1.561580 87.080900 -1.667090 1.127870 15.735700 0.000005 -0.000001 81.423600 85.473900 -80.614000 8.984550 -0.406207 -0.000000 1.195820 -1.395760 1.632600 16.377300 -0.000001 -0.000001 1.118250 -2.027410 0.783475 6.456720 -0.000001 -0.000000 -3.596520 -0.715169 6.140070 12.994200 -0.242716 4.980390 -89.643800 -1.054350 -71.332100 5.348090 -0.000007 -0.000001 -56.775300 39.060500 -21.376800 24.328600 0.000019 0.000005 6.992160 12.022300 -30.488700 22.291600 -0.000001 0.000005 5.712230 5.599650 -11.320400 12.994500 -0.242716 -4.980390 88.289700 4.389970 -68.689700 -5.348130 -0.000001 -0.000004 -57.259000 47.065300 -7.620320 -24.328900 0.000322 -0.000009 4.490950 3.684260 -50.719300 -22.291500 -0.000108 -0.000004 8.131400 5.600780 -11.389200 -2.192480 -6.469440 -0.000000 -167.654000 -16.531800 -3.849410 39.081100 -0.000007 -0.000012 -0.166366 0.466343 19.633800 40.985400 -0.000006 -0.000013 -7.209480 3.359410 -62.320000 11.754300 -0.000000 0.000003 -0.000098 -0.001015 -16.616500 -2.192510 6.469440 -0.000001 175.985000 21.470300 177.334000 -39.081100 -0.002282 -0.040193 -0.034431 0.115416 18.114500 -40.985400 0.000008 0.000006 -2.567920 4.667590 -62.412100 -11.754300 -0.000006 -0.000006 -0.005114 -0.062561 -19.118600
